<svg width="12" height="14" viewBox="0 0 12 14" fill="none" xmlns="http://www.w3.org/2000/svg">
<path d="M11.6573 5.02867C11.6142 4.92769 11.5425 4.84149 11.4511 4.78063C11.3597 4.71977 11.2525 4.68688 11.1427 4.686H7.60001L9.91401 1.00067C9.96757 0.915837 9.99835 0.818626 10.0034 0.718427C10.0084 0.618228 9.98749 0.518427 9.94267 0.428667C9.82867 0.257333 9.65734 0.143333 9.45734 0.143333H5.42867C5.22867 0.143333 5.05734 0.257333 4.94267 0.428667L0.371342 7.85733C0.315403 7.94211 0.285583 8.04144 0.285583 8.143C0.285583 8.24457 0.315403 8.34389 0.371342 8.42867C0.485342 8.60067 0.657342 8.71467 0.857342 8.71467H4.71401L3.71401 13.1433C3.68319 13.2684 3.69793 13.4004 3.75559 13.5156C3.81325 13.6308 3.91007 13.7217 4.02867 13.772C4.11401 13.8007 4.20001 13.8287 4.28534 13.8287C4.36759 13.8321 4.44945 13.8157 4.52405 13.7809C4.59865 13.7461 4.66379 13.6939 4.71401 13.6287L11.5713 5.62867C11.6402 5.54661 11.6847 5.44694 11.6999 5.34093C11.7151 5.23491 11.7003 5.12676 11.6573 5.02867ZM5.34267 11.1433L6.00001 8.22867C6.01708 8.14433 6.01574 8.0573 5.99606 7.97354C5.97639 7.88977 5.93884 7.81125 5.88601 7.74333C5.77134 7.60067 5.59934 7.54333 5.42867 7.54333H1.88534L5.74267 1.25733H8.40001L6.08601 4.94333C6.03256 5.02809 6.00185 5.12518 5.99683 5.22524C5.99181 5.32531 6.01265 5.42499 6.05734 5.51467C6.17134 5.686 6.34267 5.80067 6.54267 5.80067H9.88534L5.34267 11.1433Z" fill="#0A0A0A"/>
</svg>
