<svg width="12" height="12" viewBox="0 0 12 12" fill="none" xmlns="http://www.w3.org/2000/svg">
<path d="M8.17133 7.34267C8.73341 6.98504 9.19585 6.491 9.51559 5.90653C9.83534 5.32207 10.002 4.6662 10 4C10 1.8 8.2 0 6 0C3.8 0 2 1.8 2 4C2 5.4 2.714 6.62867 3.82866 7.34267C2.086 8.17133 0.85733 9.94267 0.85733 12H2C2 9.8 3.8 8 6 8C8.2 8 10 9.8 10 12H11.1427C11.1427 9.94267 9.91466 8.17133 8.17133 7.34267ZM3.14266 4C3.14478 3.24284 3.44649 2.51729 3.98189 1.98189C4.51729 1.4465 5.24283 1.14478 6 1.14267C6.75716 1.14478 7.48271 1.4465 8.0181 1.98189C8.5535 2.51729 8.85522 3.24284 8.85733 4C8.85522 4.75716 8.5535 5.48271 8.0181 6.01811C7.48271 6.5535 6.75716 6.85522 6 6.85733C5.24283 6.85522 4.51729 6.5535 3.98189 6.01811C3.44649 5.48271 3.14478 4.75716 3.14266 4Z" fill="#0A0A0A"/>
</svg>
