<svg width="14" height="14" viewBox="0 0 14 14" fill="none" xmlns="http://www.w3.org/2000/svg">
<path fill-rule="evenodd" clip-rule="evenodd" d="M11.8 2.14333C10.514 0.857333 8.8 0.143333 7 0.143333C3.25734 0.143333 0.200003 3.20067 0.200003 6.94333C0.200003 8.14333 0.514003 9.31467 1.114 10.3433L0.14267 13.8573L3.74267 12.9147C4.74221 13.4586 5.86206 13.7435 7 13.7433C10.7427 13.7433 13.8 10.686 13.8 6.94333C13.8 5.11467 13.0853 3.42867 11.8 2.14333ZM7 12.6C5.97134 12.6 5 12.314 4.114 11.8L3.914 11.6853L1.77134 12.2567L2.34267 10.1713L2.2 9.97133C1.62867 9.08533 1.34267 8.028 1.34267 6.97133C1.34267 3.85667 3.886 1.314 7 1.314C8.514 1.314 9.914 1.914 11 2.97133C11.526 3.49609 11.9432 4.11959 12.2276 4.80602C12.5121 5.49246 12.6581 6.22831 12.6573 6.97133C12.6573 10.0567 10.114 12.6 7 12.6ZM10.0853 8.37133C9.914 8.28533 9.08534 7.88533 8.914 7.828C8.77134 7.77133 8.65734 7.74267 8.54267 7.914C8.37604 8.1445 8.19478 8.36407 8 8.57133C7.914 8.68533 7.8 8.68533 7.62867 8.6C7.45734 8.514 6.914 8.34267 6.25734 7.77133C5.74267 7.314 5.4 6.77133 5.314 6.6C5.22867 6.428 5.314 6.34267 5.4 6.25667C5.486 6.17133 5.57134 6.05667 5.65734 5.97133C5.74267 5.88533 5.77134 5.8 5.82867 5.68533C5.88534 5.57133 5.85734 5.48533 5.82867 5.4C5.8 5.314 5.45734 4.48533 5.314 4.14267C5.17134 3.8 5.02867 3.85667 4.94267 3.85667H4.62867C4.54279 3.85677 4.45785 3.87459 4.37916 3.909C4.30047 3.94341 4.22972 3.99368 4.17134 4.05667C4.02867 4.228 3.57134 4.628 3.57134 5.48533C3.57134 6.314 4.17134 7.14267 4.25734 7.228C4.34267 7.34267 5.45734 9.05667 7.17134 9.8C7.57134 9.97133 7.886 10.0853 8.14267 10.1713C8.54267 10.314 8.914 10.2853 9.2 10.228C9.514 10.1713 10.2 9.828 10.3427 9.428C10.486 9.028 10.486 8.68533 10.4287 8.628C10.3713 8.48533 10.2573 8.45667 10.0853 8.37133Z" fill="#0A0A0A"/>
</svg>
